<?xml version="1.0" encoding="utf-8"?>
<!-- Generator: Adobe Illustrator 25.2.0, SVG Export Plug-In . SVG Version: 6.00 Build 0)  -->
<svg version="1.1" id="Layer_1" xmlns="http://www.w3.org/2000/svg" xmlns:xlink="http://www.w3.org/1999/xlink" x="0px" y="0px"
	 viewBox="0 0 2000 2000" style="enable-background:new 0 0 2000 2000;" xml:space="preserve">
<style type="text/css">
	.st0{display:none;fill:#17083F;}
	.st1{fill:#17083F;}
	.st2{fill:#015BDE;}
	.st3{fill:#01ACFF;}
	.st4{fill:url(#SVGID_1_);}
	.st5{fill:url(#SVGID_2_);}
	.st6{fill:url(#SVGID_3_);}
	.st7{fill:url(#SVGID_4_);}
	.st8{fill:url(#SVGID_5_);}
	.st9{fill:url(#SVGID_6_);}
	.st10{fill:url(#SVGID_7_);}
	.st11{fill:url(#SVGID_8_);}
	.st12{fill:url(#SVGID_9_);}
</style>
<rect class="st0" width="2000" height="2000"/>
<g>
	<linearGradient id="SVGID_1_" gradientUnits="userSpaceOnUse" x1="816.5383" y1="705.8466" x2="1157.5867" y2="1390.2018">
		<stop  offset="0" style="stop-color:#03ACFD"/>
		<stop  offset="1" style="stop-color:#0B3CC0"/>
	</linearGradient>
	<path class="st4" d="M1491.58,1022.34c-15.51-136.26-131.17-242.03-271.51-242.03c-17.11,0-33.86,1.6-50.07,4.62
		c-26.16,21.6-49.66,40.49-68.42,55.4c5.86,16.1,3.61,34.8-7.58,49.42c-17.46,22.97-50.25,27.41-73.22,9.88
		c-22.91-17.46-27.35-50.25-9.83-73.22c17.28-22.67,49.54-27.23,72.39-10.36c17.34-12.9,39.72-30.07,64.93-49.96
		c-44.69-56.29-118.26-93.05-201.54-93.05c-127.2,0-231.91,85.77-245.34,195.92c95.42,49.6,190.59,106.72,243.69,139.45
		c12.78-9.12,29.54-12.31,45.69-7.22c27.52,8.58,42.85,37.88,34.27,65.41c-8.58,27.52-37.88,42.85-65.41,34.27
		c-27.52-8.58-42.91-37.88-34.27-65.41c0.3-0.95,0.59-1.89,1.01-2.78c-48.48-32.32-143.06-90.27-234.51-143.06
		c-94.76,15.09-169.4,90.68-182.96,185.92c-1.48,10.24-2.25,20.72-2.25,31.37c0,121.52,98.49,220.01,220.01,220.01h493.41
		c150.94,0,273.28-122.35,273.28-273.28C1493.35,1043.06,1492.76,1032.58,1491.58,1022.34z M1355.08,1228.68
		c-42.56-49.66-80.32-96.24-106.01-128.56c-16.1,5.86-34.8,3.61-49.42-7.58c-22.97-17.46-27.41-50.25-9.89-73.16
		c17.46-22.97,50.25-27.35,73.16-9.89c22.67,17.28,27.29,49.48,10.48,72.39c23.5,31.9,61.56,80.26,104.06,132.53
		C1370.24,1219.57,1362.78,1224.3,1355.08,1228.68z"/>
	<linearGradient id="SVGID_2_" gradientUnits="userSpaceOnUse" x1="829.053" y1="699.6099" x2="1145.0975" y2="1333.792">
		<stop  offset="0" style="stop-color:#0B3CC0"/>
		<stop  offset="1" style="stop-color:#03ACFD"/>
	</linearGradient>
	<path class="st5" d="M1220.07,780.31c-17.11,0-33.86,1.6-50.07,4.62c-26.16,21.6-49.66,40.49-68.42,55.4
		c5.86,16.1,3.61,34.8-7.58,49.42c-17.46,22.97-50.25,27.41-73.22,9.88c-22.91-17.46-27.35-50.25-9.83-73.22
		c17.28-22.67,49.54-27.23,72.39-10.36c17.34-12.9,39.72-30.07,64.93-49.96c-44.69-56.29-118.26-93.05-201.54-93.05
		c-127.2,0-231.91,85.77-245.34,195.92c95.42,49.6,190.59,106.72,243.69,139.45c12.78-9.12,29.54-12.31,45.69-7.22
		c27.52,8.58,42.85,37.88,34.27,65.41c-8.58,27.52-37.88,42.85-65.41,34.27c-27.52-8.58-42.91-37.88-34.27-65.41
		c0.3-0.95,0.59-1.89,1.01-2.78c-48.48-32.32-143.06-90.27-234.51-143.06c-94.76,15.09-169.4,90.68-182.96,185.92
		c15.15,106.72,106.9,188.76,217.76,188.76h493.41c49.13,0,95.18-12.96,135.01-35.63c-42.56-49.66-80.32-96.24-106.01-128.56
		c-16.1,5.86-34.8,3.61-49.42-7.58c-22.97-17.46-27.41-50.25-9.89-73.16c17.46-22.97,50.25-27.35,73.16-9.89
		c22.67,17.28,27.29,49.48,10.48,72.39c23.5,31.9,61.56,80.26,104.06,132.53c62.09-43.74,105.06-112.76,114.12-192.07
		C1476.07,886.09,1360.41,780.31,1220.07,780.31z"/>
</g>
</svg>
