<?xml version="1.0" encoding="utf-8"?>
<!-- Generator: Adobe Illustrator 25.2.0, SVG Export Plug-In . SVG Version: 6.00 Build 0)  -->
<svg version="1.1" id="Layer_1" xmlns="http://www.w3.org/2000/svg" xmlns:xlink="http://www.w3.org/1999/xlink" x="0px" y="0px"
	 viewBox="0 0 2000 2000" style="enable-background:new 0 0 2000 2000;" xml:space="preserve">
<style type="text/css">
	.st0{display:none;fill:#17083F;}
	.st1{fill:#17083F;}
	.st2{fill:#015BDE;}
	.st3{fill:#01ACFF;}
	.st4{fill:url(#SVGID_1_);}
	.st5{fill:url(#SVGID_2_);}
	.st6{fill:url(#SVGID_3_);}
	.st7{fill:url(#SVGID_4_);}
	.st8{fill:url(#SVGID_5_);}
	.st9{fill:url(#SVGID_6_);}
	.st10{fill:url(#SVGID_7_);}
	.st11{fill:url(#SVGID_8_);}
	.st12{fill:url(#SVGID_9_);}
</style>
<rect class="st1" width="2000" height="2000"/>
<g>
	<g>
		<g>
			<linearGradient id="SVGID_1_" gradientUnits="userSpaceOnUse" x1="441.2166" y1="1000" x2="1571.5958" y2="1000">
				<stop  offset="0.1872" style="stop-color:#00FCE2"/>
				<stop  offset="0.7179" style="stop-color:#298BD4"/>
			</linearGradient>
			<path class="st4" d="M1461.76,1232.47l-556.13-0.27l-12.93,0.27c-2.94,0-5.88-0.09-8.77-0.27c-33.42-2.03-63.67-15.51-87-36.63
				c-8.77-7.91-16.55-16.91-23.11-26.81h85.1c10.75,0,19.31-9.27,18.22-20.18c-0.95-9.5-9.49-16.44-19.03-16.44h-46.36
				c-6.1,0-11.52-4.13-12.89-10.07c-0.06-0.27-0.12-0.54-0.18-0.81c-1.85-8.21,4.58-15.98,13-15.98h222.83
				c9.57,0,18.1-7.01,18.99-16.54c1.02-10.93-7.52-20.08-18.23-20.08H767.93c-8.78,0-15.17-8.38-12.83-16.84
				c0.02-0.09,0.05-0.18,0.07-0.27c1.6-5.75,6.87-9.71,12.83-9.71h116.96c9.56,0,18.09-6.99,18.99-16.5
				c1.04-10.94-7.5-20.17-18.23-20.17H777.8c7.37-10.04,16.05-19.04,25.73-26.81c24.46-19.53,55.44-31.25,89.17-31.25h0.5
				c0.14-1.81,0.27-3.57,0.45-5.38c9.09-97.67,91.25-174.18,191.36-174.18c64.35,0,121.28,31.61,156.18,80.13
				c19.35-8.55,40.74-13.34,63.26-13.34c86.37,0,156.41,70,156.41,156.36c0,2.94-0.09,5.83-0.27,8.73
				c58.47,2.94,105,51.28,105,110.47C1565.59,1169.03,1520.14,1229.44,1461.76,1232.47z"/>
			<linearGradient id="SVGID_2_" gradientUnits="userSpaceOnUse" x1="441.2166" y1="1055.2341" x2="1571.5958" y2="1055.2341">
				<stop  offset="0.1872" style="stop-color:#00FCE2"/>
				<stop  offset="0.7179" style="stop-color:#298BD4"/>
			</linearGradient>
			<path class="st5" d="M725.1,1068.64h-69.74c-7.4,0-13.41-6-13.41-13.41v0c0-7.4,6-13.41,13.41-13.41h69.74
				c7.4,0,13.41,6,13.41,13.41v0C738.5,1062.64,732.5,1068.64,725.1,1068.64z"/>
			<linearGradient id="SVGID_3_" gradientUnits="userSpaceOnUse" x1="441.2166" y1="1055.2341" x2="1571.5392" y2="1055.2341">
				<stop  offset="0.1872" style="stop-color:#00FCE2"/>
				<stop  offset="0.7179" style="stop-color:#298BD4"/>
			</linearGradient>
			<path class="st6" d="M609.39,1068.64H447.82c-7.4,0-13.41-6-13.41-13.41v0c0-7.4,6-13.41,13.41-13.41h161.57
				c7.4,0,13.41,6,13.41,13.41v0C622.8,1062.64,616.8,1068.64,609.39,1068.64z"/>
			<linearGradient id="SVGID_4_" gradientUnits="userSpaceOnUse" x1="441.2166" y1="1181.9783" x2="1571.5392" y2="1181.9783">
				<stop  offset="0.1872" style="stop-color:#00FCE2"/>
				<stop  offset="0.7179" style="stop-color:#298BD4"/>
			</linearGradient>
			<path class="st7" d="M819.29,1195.39H657.72c-7.4,0-13.41-6-13.41-13.41v0c0-7.4,6-13.41,13.41-13.41h161.57
				c7.4,0,13.41,6,13.41,13.41v0C832.7,1189.38,826.7,1195.39,819.29,1195.39z"/>
			<linearGradient id="SVGID_5_" gradientUnits="userSpaceOnUse" x1="441.2166" y1="991.7957" x2="1571.5958" y2="991.7957">
				<stop  offset="0.1872" style="stop-color:#00FCE2"/>
				<stop  offset="0.7179" style="stop-color:#298BD4"/>
			</linearGradient>
			<path class="st8" d="M881.13,1005.2H538.69c-7.4,0-13.41-6-13.41-13.41v0c0-7.4,6-13.41,13.41-13.41h342.45
				c7.4,0,13.41,6,13.41,13.41v0C894.54,999.2,888.54,1005.2,881.13,1005.2z"/>
			<linearGradient id="SVGID_6_" gradientUnits="userSpaceOnUse" x1="441.2166" y1="1120.3684" x2="1571.5958" y2="1120.3684">
				<stop  offset="0.1872" style="stop-color:#00FCE2"/>
				<stop  offset="0.7179" style="stop-color:#298BD4"/>
			</linearGradient>
			<path class="st9" d="M769.38,1133.78h-69.74c-7.4,0-13.41-6-13.41-13.41l0,0c0-7.4,6-13.41,13.41-13.41h69.74
				c7.4,0,13.41,6,13.41,13.41l0,0C782.79,1127.77,776.79,1133.78,769.38,1133.78z"/>
			<linearGradient id="SVGID_7_" gradientUnits="userSpaceOnUse" x1="441.2166" y1="1120.3684" x2="1571.5958" y2="1120.3684">
				<stop  offset="0.1872" style="stop-color:#00FCE2"/>
				<stop  offset="0.7179" style="stop-color:#298BD4"/>
			</linearGradient>
			<path class="st10" d="M648.63,1133.78h-98.4c-7.4,0-13.41-6-13.41-13.41l0,0c0-7.4,6-13.41,13.41-13.41h98.4
				c7.4,0,13.41,6,13.41,13.41l0,0C662.03,1127.77,656.03,1133.78,648.63,1133.78z"/>
		</g>
	</g>
</g>
</svg>
