<svg xmlns="http://www.w3.org/2000/svg" xmlns:xlink="http://www.w3.org/1999/xlink" width="512" height="512" viewBox="0 0 2000 2000">
  <defs>
    <style>
      .cls-1 {
        fill-rule: evenodd;
        fill: url(#linear-gradient);
      }
    </style>
    <linearGradient id="linear-gradient" x1="23.844" y1="1000.001" x2="1976.22" y2="1000.001" gradientUnits="userSpaceOnUse">
      <stop offset="Infinity" stop-color="#NaNNaNNaN"/>
    </linearGradient>
  </defs>
  <path id="_Path_" data-name="&lt;Path&gt;" class="cls-1" d="M1730.68,1549.72l-1315.09-.64-30.581.64c-6.951,0-13.9-.24-20.744-0.64-160.62-9.41-335.609-122.91-340.339-312.09-5.324-212.97,174.989-354.709,361.083-362.1h1.176c0.321-4.277.641-8.447,1.07-12.725,21.491-230.964,215.781-411.887,452.519-411.887,152.16,0,286.786,74.743,369.326,189.477a369.4,369.4,0,0,1,149.6-31.544c204.23,0,369.86,165.525,369.86,369.758,0,6.95-.21,13.793-0.64,20.637,138.26,6.95,248.29,121.26,248.29,261.23C1976.21,1399.7,1868.73,1542.55,1730.68,1549.72Z"/>
</svg>
